<svg data-v-423bf9ae="" xmlns="http://www.w3.org/2000/svg" viewBox="0 0 429.4970856149157 174" class="iconAbove"><!----><!----><!----><g data-v-423bf9ae="" id="d15932bf-e71d-4d7b-bdfd-1d2ae729ec10" fill="#0E261C" transform="matrix(4.437869985265308,0,0,4.437869985265308,-1.1982177830884382,82.22978406327931)"><path d="M0.33 15.22L0.27 15.08L1.21 14.75L1.21 14.75Q1.22 14.75 1.24 14.87L1.24 14.87L1.24 14.87Q1.26 14.98 1.33 15.17L1.33 15.17L1.33 15.17Q1.39 15.35 1.50 15.58L1.50 15.58L1.50 15.58Q1.61 15.80 1.81 16.03L1.81 16.03L1.81 16.03Q2.02 16.26 2.28 16.44L2.28 16.44L2.28 16.44Q2.87 16.86 3.83 16.86L3.83 16.86L3.83 16.86Q4.80 16.86 5.27 16.33L5.27 16.33L5.27 16.33Q5.74 15.80 5.74 15.04L5.74 15.04L5.74 15.04Q5.74 14.27 5.44 13.83L5.44 13.83L5.44 13.83Q5.15 13.38 4.40 13.08L4.40 13.08L4.40 13.08Q4.18 12.99 3.83 12.87L3.83 12.87L3.18 12.64L3.18 12.64Q1.49 12.08 0.91 11.20L0.91 11.20L0.91 11.20Q0.51 10.60 0.51 9.78L0.51 9.78L0.51 9.78Q0.51 8.82 1.27 7.98L1.27 7.98L1.27 7.98Q1.63 7.60 2.19 7.36L2.19 7.36L2.19 7.36Q2.75 7.12 3.37 7.12L3.37 7.12L3.37 7.12Q3.99 7.12 4.47 7.29L4.47 7.29L4.47 7.29Q4.94 7.46 5.23 7.70L5.23 7.70L5.23 7.70Q5.52 7.95 5.76 8.27L5.76 8.27L5.76 8.27Q5.99 8.59 6.09 8.85L6.09 8.85L6.29 9.35L6.29 9.35Q6.38 9.59 6.40 9.63L6.40 9.63L5.51 9.97L5.51 9.97Q5.50 9.94 5.44 9.76L5.44 9.76L5.44 9.76Q5.39 9.58 5.36 9.46L5.36 9.46L5.36 9.46Q5.32 9.34 5.23 9.14L5.23 9.14L5.23 9.14Q5.13 8.93 5.03 8.79L5.03 8.79L5.03 8.79Q4.94 8.65 4.77 8.49L4.77 8.49L4.77 8.49Q4.61 8.32 4.43 8.22L4.43 8.22L4.43 8.22Q3.98 7.97 3.41 7.97L3.41 7.97L3.41 7.97Q2.57 7.97 2.04 8.47L2.04 8.47L2.04 8.47Q1.52 8.96 1.52 9.78L1.52 9.78L1.52 9.78Q1.52 10.68 1.98 11.04L1.98 11.04L1.98 11.04Q2.24 11.24 2.41 11.33L2.41 11.33L2.41 11.33Q2.58 11.42 2.82 11.50L2.82 11.50L2.82 11.50Q3.06 11.59 3.17 11.63L3.17 11.63L3.17 11.63Q3.27 11.68 3.60 11.77L3.60 11.77L4.17 11.95L4.17 11.95Q5.76 12.43 6.35 13.39L6.35 13.39L6.35 13.39Q6.75 14.04 6.75 14.96L6.75 14.96L6.75 14.96Q6.75 15.63 6.33 16.37L6.33 16.37L6.33 16.37Q5.80 17.29 4.73 17.60L4.73 17.60L4.73 17.60Q4.33 17.71 3.79 17.71L3.79 17.71L3.79 17.71Q3.25 17.71 2.73 17.56L2.73 17.56L2.73 17.56Q2.21 17.42 1.86 17.19L1.86 17.19L1.86 17.19Q1.51 16.95 1.23 16.67L1.23 16.67L1.23 16.67Q0.94 16.39 0.77 16.11L0.77 16.11L0.77 16.11Q0.46 15.60 0.33 15.22L0.33 15.22ZM8.30 11.15L7.08 11.15L7.08 10.38L8.30 10.38L8.30 7.75L9.20 7.75L9.20 10.38L10.86 10.38L10.86 11.15L9.20 11.15L9.20 15.72L9.20 15.72Q9.20 16.41 9.41 16.67L9.41 16.67L9.41 16.67Q9.63 16.92 10.11 16.92L10.11 16.92L10.11 16.92Q10.31 16.92 10.58 16.88L10.58 16.88L10.58 16.88Q10.86 16.85 10.86 16.84L10.86 16.84L10.86 17.52L10.86 17.52Q10.40 17.68 9.98 17.68L9.98 17.68L9.98 17.68Q9.55 17.68 9.39 17.66L9.39 17.66L9.39 17.66Q9.24 17.64 9.01 17.53L9.01 17.53L9.01 17.53Q8.78 17.42 8.64 17.23L8.64 17.23L8.64 17.23Q8.30 16.75 8.30 15.72L8.30 15.72L8.30 11.15ZM11.86 15.76L11.86 15.76L11.86 10.38L12.76 10.38L12.76 15.76L12.76 15.76Q12.76 16.27 13.13 16.59L13.13 16.59L13.13 16.59Q13.49 16.91 13.92 16.91L13.92 16.91L13.92 16.91Q14.93 16.91 16.02 15.72L16.02 15.72L16.02 10.38L16.92 10.38L16.92 17.60L16.02 17.60L16.02 16.41L16.02 16.41Q15.05 17.36 14.36 17.57L14.36 17.57L14.36 17.57Q14.02 17.67 13.66 17.67L13.66 17.67L13.66 17.67Q12.87 17.67 12.37 17.19L12.37 17.19L12.37 17.19Q11.86 16.71 11.86 15.76ZM21.48 7.24L21.48 7.24L21.48 8.00L20.87 8.00L20.87 8.00Q19.84 8.00 19.84 8.86L19.84 8.86L19.84 10.38L21.48 10.38L21.48 11.15L19.84 11.15L19.84 17.60L18.94 17.60L18.94 11.15L17.76 11.15L17.76 10.38L18.94 10.38L18.94 8.86L18.94 8.86Q18.94 7.75 19.91 7.36L19.91 7.36L19.91 7.36Q20.36 7.18 20.89 7.18L20.89 7.18L20.89 7.18Q21.42 7.18 21.48 7.24ZM25.38 7.24L25.38 7.24L25.38 8.00L24.77 8.00L24.77 8.00Q23.74 8.00 23.74 8.86L23.74 8.86L23.74 10.38L25.38 10.38L25.38 11.15L23.74 11.15L23.74 17.60L22.84 17.60L22.84 11.15L21.66 11.15L21.66 10.38L22.84 10.38L22.84 8.86L22.84 8.86Q22.84 7.75 23.80 7.36L23.80 7.36L23.80 7.36Q24.25 7.18 24.78 7.18L24.78 7.18L24.78 7.18Q25.31 7.18 25.38 7.24ZM32.09 8.09L29.13 8.09L29.13 7.24L36.05 7.24L36.05 8.09L33.10 8.09L33.10 17.60L32.09 17.60L32.09 8.09ZM38.01 17.60L37.11 17.60L37.11 7.24L38.01 7.24L38.01 11.57L38.01 11.57Q39.02 10.60 39.67 10.40L39.67 10.40L39.67 10.40Q40.00 10.31 40.37 10.31L40.37 10.31L40.37 10.31Q41.15 10.31 41.66 10.79L41.66 10.79L41.66 10.79Q42.16 11.27 42.16 12.22L42.16 12.22L42.16 17.60L41.26 17.60L41.26 12.22L41.26 12.22Q41.26 11.71 40.90 11.39L40.90 11.39L40.90 11.39Q40.53 11.07 40.11 11.07L40.11 11.07L40.11 11.07Q39.09 11.07 38.01 12.26L38.01 12.26L38.01 17.60ZM43.41 15.84L43.41 15.84L43.41 15.84Q43.41 15.35 43.53 14.98L43.53 14.98L43.53 14.98Q43.65 14.62 43.92 14.33L43.92 14.33L43.92 14.33Q44.18 14.05 44.52 13.83L44.52 13.83L44.52 13.83Q44.85 13.61 45.35 13.43L45.35 13.43L45.35 13.43Q46.26 13.11 47.57 12.85L47.57 12.85L47.57 12.85Q47.57 11.77 47.15 11.41L47.15 11.41L47.15 11.41Q46.79 11.09 46.08 11.09L46.08 11.09L46.08 11.09Q45.22 11.09 44.60 11.74L44.60 11.74L44.60 11.74Q44.33 12.01 44.23 12.22L44.23 12.22L43.58 11.79L43.58 11.79Q44.34 10.32 46.18 10.32L46.18 10.32L46.18 10.32Q47.83 10.32 48.29 11.59L48.29 11.59L48.29 11.59Q48.47 12.10 48.47 12.83L48.47 12.83L48.47 16.58L48.47 16.58Q48.47 16.78 48.55 17.12L48.55 17.12L48.55 17.12Q48.62 17.47 48.69 17.60L48.69 17.60L47.78 17.60L47.78 17.60Q47.57 17.49 47.57 16.45L47.57 16.45L47.57 16.45Q46.61 17.68 45.45 17.68L45.45 17.68L45.45 17.68Q44.16 17.68 43.66 16.78L43.66 16.78L43.66 16.78Q43.41 16.32 43.41 15.84ZM44.48 15.05L44.48 15.05L44.48 15.05Q44.31 15.37 44.31 15.87L44.31 15.87L44.31 15.87Q44.31 16.38 44.67 16.65L44.67 16.65L44.67 16.65Q45.02 16.92 45.46 16.92L45.46 16.92L45.46 16.92Q45.89 16.92 46.22 16.79L46.22 16.79L46.22 16.79Q46.55 16.66 46.83 16.45L46.83 16.45L46.83 16.45Q47.33 16.08 47.57 15.78L47.57 15.78L47.57 13.62L47.57 13.62Q46.27 13.95 46.03 14.03L46.03 14.03L46.03 14.03Q44.83 14.42 44.48 15.05ZM50.61 11.15L49.40 11.15L49.40 10.38L50.61 10.38L50.61 7.75L51.52 7.75L51.52 10.38L53.17 10.38L53.17 11.15L51.52 11.15L51.52 15.72L51.52 15.72Q51.52 16.41 51.73 16.67L51.73 16.67L51.73 16.67Q51.94 16.92 52.42 16.92L52.42 16.92L52.42 16.92Q52.62 16.92 52.90 16.88L52.90 16.88L52.90 16.88Q53.17 16.85 53.17 16.84L53.17 16.84L53.17 17.52L53.17 17.52Q52.72 17.68 52.29 17.68L52.29 17.68L52.29 17.68Q51.86 17.68 51.71 17.66L51.71 17.66L51.71 17.66Q51.55 17.64 51.32 17.53L51.32 17.53L51.32 17.53Q51.10 17.42 50.96 17.23L50.96 17.23L50.96 17.23Q50.61 16.75 50.61 15.72L50.61 15.72L50.61 11.15ZM54.07 10.45L53.77 10.45L54.37 8.74L53.92 8.74L53.92 7.71L54.95 7.71L54.95 8.74L54.95 8.74Q54.76 9.13 54.43 9.78L54.43 9.78L54.43 9.78Q54.09 10.42 54.07 10.45L54.07 10.45ZM55.99 16.23L55.99 16.23L56.66 15.79L56.66 15.79Q57.03 16.35 57.47 16.63L57.47 16.63L57.47 16.63Q57.91 16.91 58.56 16.91L58.56 16.91L58.56 16.91Q59.23 16.91 59.64 16.54L59.64 16.54L59.64 16.54Q59.99 16.24 59.99 15.80L59.99 15.80L59.99 15.80Q59.99 15.37 59.84 15.11L59.84 15.11L59.84 15.11Q59.69 14.85 59.42 14.68L59.42 14.68L59.42 14.68Q58.96 14.42 58.46 14.30L58.46 14.30L58.46 14.30Q57.97 14.18 57.69 14.09L57.69 14.09L57.69 14.09Q57.40 13.99 57.10 13.82L57.10 13.82L57.10 13.82Q56.80 13.64 56.58 13.43L56.58 13.43L56.58 13.43Q56.08 12.95 56.08 12.15L56.08 12.15L56.08 12.15Q56.08 11.35 56.72 10.83L56.72 10.83L56.72 10.83Q57.36 10.31 58.35 10.31L58.35 10.31L58.35 10.31Q59.52 10.31 60.33 11.15L60.33 11.15L60.33 11.15Q60.48 11.31 60.58 11.46L60.58 11.46L59.96 11.92L59.96 11.92Q59.91 11.87 59.77 11.72L59.77 11.72L59.77 11.72Q59.62 11.57 59.58 11.53L59.58 11.53L59.40 11.38L59.40 11.38Q59.28 11.27 59.20 11.24L59.20 11.24L58.97 11.16L58.97 11.16Q58.75 11.07 58.23 11.07L58.23 11.07L58.23 11.07Q57.71 11.07 57.33 11.37L57.33 11.37L57.33 11.37Q56.96 11.67 56.96 12.02L56.96 12.02L56.96 12.02Q56.96 12.38 57.08 12.60L57.08 12.60L57.08 12.60Q57.20 12.81 57.45 12.97L57.45 12.97L57.45 12.97Q57.85 13.21 58.37 13.37L58.37 13.37L58.37 13.37Q58.88 13.53 59.05 13.58L59.05 13.58L59.05 13.58Q59.22 13.64 59.50 13.75L59.50 13.75L59.50 13.75Q59.79 13.86 59.95 13.97L59.95 13.97L59.95 13.97Q60.11 14.07 60.31 14.24L60.31 14.24L60.31 14.24Q60.52 14.40 60.63 14.59L60.63 14.59L60.63 14.59Q60.89 15.05 60.89 15.60L60.89 15.60L60.89 15.60Q60.89 16.51 60.20 17.09L60.20 17.09L60.20 17.09Q59.51 17.67 58.60 17.67L58.60 17.67L58.60 17.67Q57.70 17.67 57.08 17.33L57.08 17.33L57.08 17.33Q56.46 16.98 55.99 16.23ZM68.07 8.09L65.11 8.09L65.11 7.24L72.03 7.24L72.03 8.09L69.08 8.09L69.08 17.60L68.07 17.60L68.07 8.09ZM71.42 13.94L71.42 13.94L71.42 13.94Q71.42 12.29 72.16 11.30L72.16 11.30L72.16 11.30Q72.90 10.31 74.23 10.31L74.23 10.31L74.23 10.31Q75.56 10.31 76.30 11.31L76.30 11.31L76.30 11.31Q77.03 12.30 77.03 13.97L77.03 13.97L77.03 13.97Q77.03 15.64 76.29 16.66L76.29 16.66L76.29 16.66Q75.55 17.68 74.23 17.68L74.23 17.68L74.23 17.68Q72.88 17.68 72.14 16.63L72.14 16.63L72.14 16.63Q71.42 15.59 71.42 13.94ZM72.32 13.99L72.32 13.99L72.32 13.99Q72.32 16.15 73.45 16.73L73.45 16.73L73.45 16.73Q73.79 16.91 74.23 16.91L74.23 16.91L74.23 16.91Q74.68 16.91 75.02 16.73L75.02 16.73L75.02 16.73Q75.37 16.56 75.57 16.28L75.57 16.28L75.57 16.28Q75.78 16.00 75.91 15.60L75.91 15.60L75.91 15.60Q76.13 14.91 76.13 13.99L76.13 13.99L76.13 13.99Q76.13 11.07 74.22 11.07L74.22 11.07L74.22 11.07Q72.32 11.07 72.32 13.99ZM78.43 15.76L78.43 15.76L78.43 10.38L79.33 10.38L79.33 15.76L79.33 15.76Q79.33 16.27 79.70 16.59L79.70 16.59L79.70 16.59Q80.06 16.91 80.49 16.91L80.49 16.91L80.49 16.91Q81.50 16.91 82.58 15.72L82.58 15.72L82.58 10.38L83.49 10.38L83.49 17.60L82.58 17.60L82.58 16.41L82.58 16.41Q81.61 17.36 80.92 17.57L80.92 17.57L80.92 17.57Q80.59 17.67 80.23 17.67L80.23 17.67L80.23 17.67Q79.44 17.67 78.93 17.19L78.93 17.19L78.93 17.19Q78.43 16.71 78.43 15.76ZM85.54 20.22L85.54 20.22Q85.08 20.01 84.80 19.63L84.80 19.63L84.80 19.63Q84.53 19.25 84.53 18.88L84.53 18.88L84.53 18.88Q84.53 18.51 84.63 18.31L84.63 18.31L84.63 18.31Q84.73 18.10 84.94 17.94L84.94 17.94L84.94 17.94Q85.15 17.77 85.30 17.67L85.30 17.67L85.30 17.67Q85.46 17.58 85.72 17.44L85.72 17.44L85.72 17.44Q85.99 17.31 86.04 17.27L86.04 17.27L86.04 17.27Q85.48 17.16 85.20 16.86L85.20 16.86L85.20 16.86Q84.91 16.57 84.91 16.33L84.91 16.33L84.91 16.33Q84.91 16.08 85.00 15.89L85.00 15.89L85.00 15.89Q85.09 15.69 85.28 15.52L85.28 15.52L85.28 15.52Q85.58 15.25 85.78 15.13L85.78 15.13L85.78 15.13Q85.98 15.00 86.00 14.99L86.00 14.99L86.00 14.99Q85.59 14.64 85.27 14.08L85.27 14.08L85.27 14.08Q84.96 13.51 84.96 12.84L84.96 12.84L84.96 12.84Q84.96 12.17 85.34 11.57L85.34 11.57L85.34 11.57Q85.71 10.98 86.33 10.64L86.33 10.64L86.33 10.64Q86.96 10.31 87.55 10.31L87.55 10.31L87.55 10.31Q88.14 10.31 88.49 10.45L88.49 10.45L88.49 10.45Q88.85 10.60 89.26 10.88L89.26 10.88L89.26 10.88Q89.78 10.45 90.11 10.39L90.11 10.39L90.11 10.39Q90.54 10.30 90.89 10.29L90.89 10.29L90.89 11.12L90.88 11.12L90.88 11.12Q89.71 11.12 89.71 11.33L89.71 11.33L89.71 11.33Q90.06 11.97 90.14 12.27L90.14 12.27L90.14 12.27Q90.23 12.58 90.23 12.89L90.23 12.89L90.23 12.89Q90.23 13.99 89.52 14.75L89.52 14.75L89.52 14.75Q88.81 15.51 87.68 15.51L87.68 15.51L87.68 15.51Q87.09 15.51 86.47 15.25L86.47 15.25L86.47 15.25Q86.41 15.30 86.22 15.44L86.22 15.44L86.22 15.44Q85.81 15.72 85.81 16.01L85.81 16.01L85.81 16.01Q85.81 16.32 86.10 16.44L86.10 16.44L86.10 16.44Q86.32 16.53 86.64 16.58L86.64 16.58L86.64 16.58Q86.97 16.63 87.10 16.64L87.10 16.64L87.10 16.64Q87.23 16.66 87.55 16.67L87.55 16.67L87.55 16.67Q88.31 16.67 89.37 16.93L89.37 16.93L89.37 16.93Q90.03 17.08 90.45 17.55L90.45 17.55L90.45 17.55Q90.87 18.03 90.87 18.68L90.87 18.68L90.87 18.68Q90.87 20.64 87.60 20.64L87.60 20.64L87.60 20.64Q86.44 20.64 85.54 20.22L85.54 20.22ZM85.43 18.75L85.43 18.75L85.43 18.75Q85.43 19.42 86.15 19.66L86.15 19.66L86.15 19.66Q86.78 19.87 87.32 19.87L87.32 19.87L87.32 19.87Q87.86 19.87 88.04 19.87L88.04 19.87L88.04 19.87Q88.22 19.87 88.50 19.84L88.50 19.84L88.50 19.84Q88.78 19.82 88.96 19.77L88.96 19.77L88.96 19.77Q89.13 19.73 89.35 19.64L89.35 19.64L89.35 19.64Q89.56 19.55 89.68 19.43L89.68 19.43L89.68 19.43Q89.97 19.14 89.97 18.73L89.97 18.73L89.97 18.73Q89.97 18.32 89.69 18.08L89.69 18.08L89.69 18.08Q89.42 17.83 89.00 17.73L89.00 17.73L89.00 17.73Q88.58 17.63 88.17 17.59L88.17 17.59L88.17 17.59Q87.76 17.54 87.39 17.52L87.39 17.52L87.39 17.52Q87.01 17.51 86.94 17.49L86.94 17.49L86.94 17.49Q86.21 17.76 85.99 17.89L85.99 17.89L85.99 17.89Q85.43 18.22 85.43 18.75ZM86.38 11.58L86.38 11.58L86.38 11.58Q85.87 12.09 85.87 12.89L85.87 12.89L85.87 12.89Q85.87 13.69 86.34 14.22L86.34 14.22L86.34 14.22Q86.82 14.75 87.65 14.75L87.65 14.75L87.65 14.75Q88.47 14.75 88.90 14.21L88.90 14.21L88.90 14.21Q89.33 13.67 89.33 12.89L89.33 12.89L89.33 12.89Q89.33 12.12 88.90 11.60L88.90 11.60L88.90 11.60Q88.48 11.07 87.68 11.07L87.68 11.07L87.68 11.07Q86.88 11.07 86.38 11.58ZM92.89 17.60L91.99 17.60L91.99 7.24L92.89 7.24L92.89 11.57L92.89 11.57Q93.91 10.60 94.55 10.40L94.55 10.40L94.55 10.40Q94.89 10.31 95.25 10.31L95.25 10.31L95.25 10.31Q96.04 10.31 96.54 10.79L96.54 10.79L96.54 10.79Q97.05 11.27 97.05 12.22L97.05 12.22L97.05 17.60L96.15 17.60L96.15 12.22L96.15 12.22Q96.15 11.71 95.78 11.39L95.78 11.39L95.78 11.39Q95.42 11.07 94.99 11.07L94.99 11.07L94.99 11.07Q93.98 11.07 92.89 12.26L92.89 12.26L92.89 17.60Z"></path></g><defs data-v-423bf9ae=""><linearGradient data-v-423bf9ae="" gradientTransform="rotate(25)" id="18905380-1fef-4224-be37-64386a5ea1d7" x1="0%" y1="0%" x2="100%" y2="0%"><stop data-v-423bf9ae="" offset="0%" style="stop-color: rgb(10, 55, 50); stop-opacity: 1;"></stop><stop data-v-423bf9ae="" offset="100%" style="stop-color: rgb(85, 195, 136); stop-opacity: 1;"></stop></linearGradient></defs><g data-v-423bf9ae="" id="1712ddec-4120-4f8e-83c0-e4a72a73cfe1" transform="matrix(1.0584444681803384,0,0,1.0584444681803384,164.29552469623394,0.5645475265107578)" stroke="none" fill="url(#18905380-1fef-4224-be37-64386a5ea1d7)"><path d="M29.28 10.276c-.924-1.424-1.556-2.876-1.68-3.828a2.018 2.018 0 0 0-.868-1.404C22.72 2.348 9.476.372 4.108.372c-1.084 0-1.972.86-2 1.944-.176 6.576 2.092 17.4 17.624 21.404a29.988 29.988 0 0 1 9.548-13.444zM93.888 2.316a2 2 0 0 0-2-1.944c-5.368 0-18.612 1.976-22.62 4.672a2.036 2.036 0 0 0-.872 1.404c-.12.956-.752 2.412-1.688 3.836a30.235 30.235 0 0 1 9.548 13.44C91.8 19.716 94.068 8.892 93.888 2.316zM58.828 10.08c1.928-1.46 3.204-3.764 3.204-6.376a2 2 0 0 0-4 0c0 2.208-1.776 4-3.96 4h-4.044c-.12 0-.228.048-.34.068-.552-.036-1.1-.084-1.66-.084s-1.108.048-1.664.084c-.112-.02-.216-.068-.336-.068h-4.044c-2.184 0-3.96-1.792-3.96-4 0-1.108-.896-2-2-2s-2 .892-2 2c0 2.604 1.26 4.9 3.184 6.36C28.26 14.16 22.024 23.14 22.024 33.56v10.148c0 .524.208 1.032.576 1.404l7.424 7.544V77.86c0 9.968 7.908 17.772 18 17.772 9.924 0 18-8.052 18-17.936V52.432l7.408-7.288c.384-.376.592-.892.592-1.428v-9.9c.004-10.536-6.244-19.608-15.196-23.736zM31.944 39.704a2 2 0 1 1 .001-4.001 2 2 0 0 1-.001 4.001zm8.404-3.336a1.994 1.994 0 0 1-2.768-.58c-2.264-3.464-7.316-4.62-11.252-2.584-.092.048-.192.052-.288.084.02-1.532.2-3.028.52-4.468 5.316-1.652 11.408.252 14.364 4.78a1.996 1.996 0 0 1-.576 2.768zm5.68 43.336c0 1.108-.896 2-2 2s-2-.892-2-2v-4c0-1.108.896-2 2-2s2 .892 2 2v4zm8 0c0 1.108-.896 2-2 2s-2-.892-2-2v-4c0-1.108.896-2 2-2s2 .892 2 2v4zm9.916-40a2 2 0 0 1 0-4c1.1 0 2 .896 2 2s-.892 2-2 2zm6.048-6.64c-3.884-1.804-8.712-.652-10.912 2.72a2 2 0 0 1-1.676.908c-.376 0-.752-.104-1.088-.328a2 2 0 0 1-.584-2.764c2.832-4.336 8.52-6.236 13.664-4.952.344 1.424.54 2.9.596 4.416z"></path></g><!----></svg>