<svg data-v-fde0c5aa="" xmlns="http://www.w3.org/2000/svg" viewBox="0 0 300 300" class="font"><!----><defs data-v-fde0c5aa=""><!----></defs><rect data-v-fde0c5aa="" fill="#0D9E86" x="0" y="0" width="300px" height="300px" class="logo-background-square"></rect><defs data-v-fde0c5aa=""><!----></defs><g data-v-fde0c5aa="" id="0dcac273-156f-4bea-bf6e-c43299f0f393" fill="#FBE1D5" transform="matrix(1.7770597300229731,0,0,1.7770597300229731,40,135.86348998324615)"><path d="M12.92 4.19L12.92 4.19Q12.95 4.19 12.95 4.27L12.95 4.27L12.95 4.27Q12.95 4.35 12.92 4.35L12.92 4.35L12.92 4.35Q12.42 4.35 12.00 4.73L12.00 4.73L12.00 4.73Q11.58 5.11 11.30 5.82L11.30 5.82L8.58 12.92L8.58 12.92Q8.57 12.98 8.43 12.98L8.43 12.98L8.43 12.98Q8.29 12.98 8.27 12.92L8.27 12.92L6.47 9.06L5.00 12.92L5.00 12.92Q4.98 12.98 4.84 12.98L4.84 12.98L4.84 12.98Q4.70 12.98 4.69 12.92L4.69 12.92L1.15 5.35L1.15 5.35Q0.85 4.73 0.65 4.54L0.65 4.54L0.65 4.54Q0.45 4.35 0.04 4.35L0.04 4.35L0.04 4.35Q0 4.35 0 4.27L0 4.27L0 4.27Q0 4.19 0.04 4.19L0.04 4.19L0.41 4.20L0.41 4.20Q0.71 4.23 1.11 4.23L1.11 4.23L1.11 4.23Q1.89 4.23 2.53 4.20L2.53 4.20L2.53 4.20Q2.73 4.19 3.02 4.19L3.02 4.19L3.02 4.19Q3.07 4.19 3.07 4.27L3.07 4.27L3.07 4.27Q3.07 4.35 3.02 4.35L3.02 4.35L3.02 4.35Q2.65 4.35 2.48 4.43L2.48 4.43L2.48 4.43Q2.32 4.51 2.32 4.72L2.32 4.72L2.32 4.72Q2.32 4.96 2.58 5.50L2.58 5.50L5.25 11.20L6.26 8.60L4.73 5.35L4.73 5.35Q4.48 4.83 4.26 4.59L4.26 4.59L4.26 4.59Q4.05 4.35 3.75 4.35L3.75 4.35L3.75 4.35Q3.71 4.35 3.71 4.27L3.71 4.27L3.71 4.27Q3.71 4.19 3.75 4.19L3.75 4.19L4.09 4.20L4.09 4.20Q4.40 4.23 4.70 4.23L4.70 4.23L4.70 4.23Q5.36 4.23 5.87 4.20L5.87 4.20L5.87 4.20Q6.01 4.19 6.23 4.19L6.23 4.19L6.23 4.19Q6.27 4.19 6.27 4.27L6.27 4.27L6.27 4.27Q6.27 4.35 6.23 4.35L6.23 4.35L6.23 4.35Q6.01 4.35 5.92 4.40L5.92 4.40L5.92 4.40Q5.82 4.45 5.82 4.58L5.82 4.58L5.82 4.58Q5.82 4.80 6.16 5.50L6.16 5.50L6.92 7.10L7.42 5.77L7.42 5.77Q7.67 5.11 7.67 4.77L7.67 4.77L7.67 4.77Q7.67 4.35 7.25 4.35L7.25 4.35L7.25 4.35Q7.21 4.35 7.21 4.27L7.21 4.27L7.21 4.27Q7.21 4.19 7.25 4.19L7.25 4.19L7.25 4.19Q7.38 4.19 7.55 4.21L7.55 4.21L7.55 4.21Q7.71 4.23 8.16 4.23L8.16 4.23L8.16 4.23Q8.41 4.23 8.75 4.20L8.75 4.20L9.30 4.19L9.30 4.19Q9.32 4.19 9.32 4.27L9.32 4.27L9.32 4.27Q9.32 4.35 9.30 4.35L9.30 4.35L9.30 4.35Q8.82 4.35 8.46 4.70L8.46 4.70L8.46 4.70Q8.09 5.05 7.80 5.82L7.80 5.82L7.13 7.56L8.85 11.20L10.89 5.87L10.89 5.87Q11.03 5.50 11.03 5.18L11.03 5.18L11.03 5.18Q11.03 4.79 10.80 4.57L10.80 4.57L10.80 4.57Q10.57 4.35 10.15 4.35L10.15 4.35L10.15 4.35Q10.11 4.35 10.11 4.27L10.11 4.27L10.11 4.27Q10.11 4.19 10.15 4.19L10.15 4.19L10.77 4.20L10.77 4.20Q11.27 4.23 11.68 4.23L11.68 4.23L11.68 4.23Q11.96 4.23 12.32 4.20L12.32 4.20L12.92 4.19ZM13.47 12.94L13.47 12.94Q13.43 12.94 13.43 12.85L13.43 12.85L13.43 12.85Q13.43 12.77 13.47 12.77L13.47 12.77L13.47 12.77Q13.94 12.77 14.10 12.57L14.10 12.57L14.10 12.57Q14.25 12.38 14.25 11.80L14.25 11.80L14.25 9.25L14.25 9.25Q14.25 8.78 14.15 8.56L14.15 8.56L14.15 8.56Q14.06 8.34 13.82 8.34L13.82 8.34L13.82 8.34Q13.61 8.34 13.27 8.51L13.27 8.51L13.26 8.51L13.26 8.51Q13.20 8.51 13.17 8.44L13.17 8.44L13.17 8.44Q13.15 8.37 13.19 8.34L13.19 8.34L15.20 7.41L15.25 7.39L15.25 7.39Q15.30 7.39 15.37 7.46L15.37 7.46L15.37 7.46Q15.43 7.52 15.43 7.56L15.43 7.56L15.43 7.85L15.43 7.85Q15.40 8.44 15.40 9.24L15.40 9.24L15.40 11.80L15.40 11.80Q15.40 12.38 15.56 12.57L15.56 12.57L15.56 12.57Q15.72 12.77 16.20 12.77L16.20 12.77L16.20 12.77Q16.24 12.77 16.24 12.85L16.24 12.85L16.24 12.85Q16.24 12.94 16.20 12.94L16.20 12.94L16.20 12.94Q15.85 12.94 15.64 12.92L15.64 12.92L14.83 12.91L14.01 12.92L14.01 12.92Q13.82 12.94 13.47 12.94L13.47 12.94ZM14.76 5.92L14.76 5.92Q14.39 5.92 14.19 5.73L14.19 5.73L14.19 5.73Q13.99 5.53 13.99 5.17L13.99 5.17L13.99 5.17Q13.99 4.82 14.19 4.63L14.19 4.63L14.19 4.63Q14.39 4.44 14.76 4.44L14.76 4.44L14.76 4.44Q15.11 4.44 15.30 4.63L15.30 4.63L15.30 4.63Q15.50 4.82 15.50 5.17L15.50 5.17L15.50 5.17Q15.50 5.53 15.31 5.73L15.31 5.73L15.31 5.73Q15.12 5.92 14.76 5.92L14.76 5.92ZM23.63 12.77L23.63 12.77Q23.67 12.77 23.67 12.85L23.67 12.85L23.67 12.85Q23.67 12.94 23.63 12.94L23.63 12.94L23.63 12.94Q23.28 12.94 23.09 12.92L23.09 12.92L22.27 12.91L21.48 12.92L21.48 12.92Q21.27 12.94 20.92 12.94L20.92 12.94L20.92 12.94Q20.87 12.94 20.87 12.85L20.87 12.85L20.87 12.85Q20.87 12.77 20.92 12.77L20.92 12.77L20.92 12.77Q21.39 12.77 21.55 12.57L21.55 12.57L21.55 12.57Q21.70 12.38 21.70 11.80L21.70 11.80L21.70 9.70L21.70 9.70Q21.70 8.92 21.41 8.55L21.41 8.55L21.41 8.55Q21.13 8.18 20.51 8.18L20.51 8.18L20.51 8.18Q20.15 8.18 19.77 8.34L19.77 8.34L19.77 8.34Q19.39 8.51 19.08 8.79L19.08 8.79L19.08 11.80L19.08 11.80Q19.08 12.38 19.24 12.57L19.24 12.57L19.24 12.57Q19.39 12.77 19.87 12.77L19.87 12.77L19.87 12.77Q19.91 12.77 19.91 12.85L19.91 12.85L19.91 12.85Q19.91 12.94 19.87 12.94L19.87 12.94L19.87 12.94Q19.52 12.94 19.32 12.92L19.32 12.92L18.51 12.91L17.70 12.92L17.70 12.92Q17.50 12.94 17.15 12.94L17.15 12.94L17.15 12.94Q17.11 12.94 17.11 12.85L17.11 12.85L17.11 12.85Q17.11 12.77 17.15 12.77L17.15 12.77L17.15 12.77Q17.63 12.77 17.78 12.57L17.78 12.57L17.78 12.57Q17.93 12.38 17.93 11.80L17.93 11.80L17.93 9.13L17.93 9.13Q17.93 8.68 17.83 8.47L17.83 8.47L17.83 8.47Q17.72 8.26 17.49 8.26L17.49 8.26L17.49 8.26Q17.28 8.26 16.79 8.47L16.79 8.47L16.77 8.47L16.77 8.47Q16.72 8.47 16.69 8.40L16.69 8.40L16.69 8.40Q16.66 8.33 16.70 8.32L16.70 8.32L18.54 7.42L18.54 7.42Q18.62 7.39 18.63 7.39L18.63 7.39L18.63 7.39Q18.77 7.39 18.92 7.71L18.92 7.71L18.92 7.71Q19.07 8.02 19.08 8.53L19.08 8.53L19.08 8.53Q20.06 7.36 21.21 7.36L21.21 7.36L21.21 7.36Q21.98 7.36 22.41 7.83L22.41 7.83L22.41 7.83Q22.85 8.30 22.85 9.10L22.85 9.10L22.85 11.80L22.85 11.80Q22.85 12.38 23.00 12.57L23.00 12.57L23.00 12.57Q23.16 12.77 23.63 12.77L23.63 12.77ZM30.94 12.07L30.95 12.07L30.95 12.07Q31.00 12.07 31.03 12.14L31.03 12.14L31.03 12.14Q31.07 12.21 31.02 12.22L31.02 12.22L29.23 13.09L29.15 13.10L29.15 13.10Q29.01 13.10 28.89 12.82L28.89 12.82L28.89 12.82Q28.77 12.54 28.76 12.07L28.76 12.07L28.76 12.07Q28.25 12.54 27.72 12.83L27.72 12.83L27.72 12.83Q27.19 13.12 26.56 13.12L26.56 13.12L26.56 13.12Q25.96 13.12 25.45 12.79L25.45 12.79L25.45 12.79Q24.95 12.46 24.65 11.84L24.65 11.84L24.65 11.84Q24.36 11.23 24.36 10.40L24.36 10.40L24.36 10.40Q24.36 9.37 24.85 8.68L24.85 8.68L24.85 8.68Q25.34 7.99 26.08 7.67L26.08 7.67L26.08 7.67Q26.82 7.35 27.57 7.35L27.57 7.35L27.57 7.35Q28.18 7.35 28.74 7.57L28.74 7.57L28.74 4.65L28.74 4.65Q28.74 4.16 28.65 3.94L28.65 3.94L28.65 3.94Q28.56 3.72 28.32 3.72L28.32 3.72L28.32 3.72Q28.17 3.72 27.76 3.89L27.76 3.89L27.73 3.89L27.73 3.89Q27.68 3.89 27.65 3.82L27.65 3.82L27.65 3.82Q27.62 3.75 27.65 3.74L27.65 3.74L29.62 2.80L29.68 2.79L29.68 2.79Q29.74 2.79 29.81 2.84L29.81 2.84L29.81 2.84Q29.88 2.90 29.88 2.94L29.88 2.94L29.88 11.34L29.88 11.34Q29.88 11.83 29.97 12.03L29.97 12.03L29.97 12.03Q30.07 12.24 30.31 12.24L30.31 12.24L30.31 12.24Q30.59 12.24 30.94 12.07L30.94 12.07ZM27.26 12.50L27.26 12.50Q27.66 12.50 28.02 12.32L28.02 12.32L28.02 12.32Q28.38 12.14 28.74 11.80L28.74 11.80L28.74 11.79L28.74 8.46L28.74 8.46Q28.46 8.06 28.12 7.88L28.12 7.88L28.12 7.88Q27.78 7.69 27.30 7.69L27.30 7.69L27.30 7.69Q26.50 7.69 26.07 8.24L26.07 8.24L26.07 8.24Q25.63 8.79 25.63 9.97L25.63 9.97L25.63 9.97Q25.63 11.14 26.09 11.82L26.09 11.82L26.09 11.82Q26.54 12.50 27.26 12.50L27.26 12.50ZM34.34 13.12L34.34 13.12Q33.50 13.12 32.86 12.72L32.86 12.72L32.86 12.72Q32.21 12.32 31.86 11.64L31.86 11.64L31.86 11.64Q31.51 10.96 31.51 10.16L31.51 10.16L31.51 10.16Q31.51 9.25 31.97 8.62L31.97 8.62L31.97 8.62Q32.42 7.98 33.13 7.67L33.13 7.67L33.13 7.67Q33.84 7.35 34.58 7.35L34.58 7.35L34.58 7.35Q35.43 7.35 36.07 7.76L36.07 7.76L36.07 7.76Q36.71 8.16 37.04 8.83L37.04 8.83L37.04 8.83Q37.38 9.49 37.38 10.25L37.38 10.25L37.38 10.25Q37.38 11.09 36.97 11.75L36.97 11.75L36.97 11.75Q36.55 12.40 35.85 12.76L35.85 12.76L35.85 12.76Q35.15 13.12 34.34 13.12L34.34 13.12ZM34.76 12.84L34.76 12.84Q35.38 12.84 35.71 12.29L35.71 12.29L35.71 12.29Q36.04 11.75 36.04 10.70L36.04 10.70L36.04 10.70Q36.04 9.76 35.78 9.06L35.78 9.06L35.78 9.06Q35.52 8.36 35.08 7.99L35.08 7.99L35.08 7.99Q34.64 7.63 34.12 7.63L34.12 7.63L34.12 7.63Q33.49 7.63 33.17 8.15L33.17 8.15L33.17 8.15Q32.84 8.67 32.84 9.67L32.84 9.67L32.84 9.67Q32.84 10.58 33.09 11.30L33.09 11.30L33.09 11.30Q33.33 12.03 33.77 12.43L33.77 12.43L33.77 12.43Q34.22 12.84 34.76 12.84L34.76 12.84ZM47.49 7.53L47.49 7.53Q47.53 7.53 47.53 7.62L47.53 7.62L47.53 7.62Q47.53 7.70 47.49 7.70L47.49 7.70L47.49 7.70Q47.11 7.70 46.82 7.98L46.82 7.98L46.82 7.98Q46.54 8.26 46.27 8.88L46.27 8.88L44.53 12.92L44.53 12.92Q44.53 12.98 44.39 12.98L44.39 12.98L44.39 12.98Q44.24 12.98 44.23 12.92L44.23 12.92L42.57 9.56L41.13 12.92L41.13 12.92Q41.13 12.98 40.99 12.98L40.99 12.98L40.99 12.98Q40.87 12.98 40.82 12.92L40.82 12.92L38.75 8.69L38.75 8.69Q38.44 8.09 38.23 7.90L38.23 7.90L38.23 7.90Q38.02 7.70 37.73 7.70L37.73 7.70L37.73 7.70Q37.69 7.70 37.69 7.62L37.69 7.62L37.69 7.62Q37.69 7.53 37.73 7.53L37.73 7.53L37.73 7.53Q37.98 7.53 38.14 7.55L38.14 7.55L38.95 7.56L39.90 7.55L39.90 7.55Q40.11 7.53 40.47 7.53L40.47 7.53L40.47 7.53Q40.52 7.53 40.52 7.62L40.52 7.62L40.52 7.62Q40.52 7.70 40.47 7.70L40.47 7.70L40.47 7.70Q39.73 7.70 39.73 8.02L39.73 8.02L39.73 8.02Q39.73 8.11 39.80 8.25L39.80 8.25L41.45 11.40L42.38 9.18L42.14 8.69L42.14 8.69Q41.83 8.08 41.66 7.89L41.66 7.89L41.66 7.89Q41.50 7.70 41.23 7.70L41.23 7.70L41.23 7.70Q41.20 7.70 41.20 7.62L41.20 7.62L41.20 7.62Q41.20 7.53 41.23 7.53L41.23 7.53L41.23 7.53Q41.47 7.53 41.62 7.55L41.62 7.55L42.35 7.56L43.32 7.55L43.32 7.55Q43.53 7.53 43.88 7.53L43.88 7.53L43.88 7.53Q43.90 7.53 43.90 7.62L43.90 7.62L43.90 7.62Q43.90 7.70 43.88 7.70L43.88 7.70L43.88 7.70Q43.55 7.70 43.37 7.78L43.37 7.78L43.37 7.78Q43.18 7.87 43.18 8.04L43.18 8.04L43.18 8.04Q43.18 8.11 43.25 8.25L43.25 8.25L44.86 11.41L45.91 8.85L45.91 8.85Q46.02 8.55 46.02 8.37L46.02 8.37L46.02 8.37Q46.02 8.05 45.77 7.88L45.77 7.88L45.77 7.88Q45.51 7.70 45.05 7.70L45.05 7.70L45.05 7.70Q45.01 7.70 45.01 7.62L45.01 7.62L45.01 7.62Q45.01 7.53 45.05 7.53L45.05 7.53L45.05 7.53Q45.43 7.53 45.61 7.55L45.61 7.55L46.45 7.56L47.01 7.55L47.01 7.55Q47.15 7.53 47.49 7.53L47.49 7.53ZM53.94 13.12L53.94 13.12Q53.10 13.12 52.46 12.72L52.46 12.72L52.46 12.72Q51.81 12.32 51.46 11.64L51.46 11.64L51.46 11.64Q51.11 10.96 51.11 10.16L51.11 10.16L51.11 10.16Q51.11 9.25 51.57 8.62L51.57 8.62L51.57 8.62Q52.02 7.98 52.73 7.67L52.73 7.67L52.73 7.67Q53.44 7.35 54.18 7.35L54.18 7.35L54.18 7.35Q55.03 7.35 55.67 7.76L55.67 7.76L55.67 7.76Q56.31 8.16 56.64 8.83L56.64 8.83L56.64 8.83Q56.98 9.49 56.98 10.25L56.98 10.25L56.98 10.25Q56.98 11.09 56.57 11.75L56.57 11.75L56.57 11.75Q56.15 12.40 55.45 12.76L55.45 12.76L55.45 12.76Q54.75 13.12 53.94 13.12L53.94 13.12ZM54.36 12.84L54.36 12.84Q54.98 12.84 55.31 12.29L55.31 12.29L55.31 12.29Q55.64 11.75 55.64 10.70L55.64 10.70L55.64 10.70Q55.64 9.76 55.38 9.06L55.38 9.06L55.38 9.06Q55.12 8.36 54.68 7.99L54.68 7.99L54.68 7.99Q54.24 7.63 53.72 7.63L53.72 7.63L53.72 7.63Q53.09 7.63 52.77 8.15L52.77 8.15L52.77 8.15Q52.44 8.67 52.44 9.67L52.44 9.67L52.44 9.67Q52.44 10.58 52.69 11.30L52.69 11.30L52.69 11.30Q52.93 12.03 53.38 12.43L53.38 12.43L53.38 12.43Q53.82 12.84 54.36 12.84L54.36 12.84ZM64.51 12.77L64.51 12.77Q64.55 12.77 64.55 12.85L64.55 12.85L64.55 12.85Q64.55 12.94 64.51 12.94L64.51 12.94L64.51 12.94Q64.16 12.94 63.97 12.92L63.97 12.92L63.15 12.91L62.36 12.92L62.36 12.92Q62.15 12.94 61.80 12.94L61.80 12.94L61.80 12.94Q61.75 12.94 61.75 12.85L61.75 12.85L61.75 12.85Q61.75 12.77 61.80 12.77L61.80 12.77L61.80 12.77Q62.27 12.77 62.43 12.57L62.43 12.57L62.43 12.57Q62.58 12.38 62.58 11.80L62.58 11.80L62.58 9.70L62.58 9.70Q62.58 8.92 62.29 8.55L62.29 8.55L62.29 8.55Q62.01 8.18 61.39 8.18L61.39 8.18L61.39 8.18Q61.03 8.18 60.65 8.34L60.65 8.34L60.65 8.34Q60.27 8.51 59.96 8.79L59.96 8.79L59.96 11.80L59.96 11.80Q59.96 12.38 60.12 12.57L60.12 12.57L60.12 12.57Q60.27 12.77 60.75 12.77L60.75 12.77L60.75 12.77Q60.79 12.77 60.79 12.85L60.79 12.85L60.79 12.85Q60.79 12.94 60.75 12.94L60.75 12.94L60.75 12.94Q60.40 12.94 60.20 12.92L60.20 12.92L59.39 12.91L58.58 12.92L58.58 12.92Q58.38 12.94 58.03 12.94L58.03 12.94L58.03 12.94Q57.99 12.94 57.99 12.85L57.99 12.85L57.99 12.85Q57.99 12.77 58.03 12.77L58.03 12.77L58.03 12.77Q58.51 12.77 58.66 12.57L58.66 12.57L58.66 12.57Q58.81 12.38 58.81 11.80L58.81 11.80L58.81 9.13L58.81 9.13Q58.81 8.68 58.71 8.47L58.71 8.47L58.71 8.47Q58.60 8.26 58.37 8.26L58.37 8.26L58.37 8.26Q58.16 8.26 57.67 8.47L57.67 8.47L57.65 8.47L57.65 8.47Q57.60 8.47 57.57 8.40L57.57 8.40L57.57 8.40Q57.54 8.33 57.58 8.32L57.58 8.32L59.42 7.42L59.42 7.42Q59.50 7.39 59.51 7.39L59.51 7.39L59.51 7.39Q59.65 7.39 59.80 7.71L59.80 7.71L59.80 7.71Q59.95 8.02 59.96 8.53L59.96 8.53L59.96 8.53Q60.94 7.36 62.09 7.36L62.09 7.36L62.09 7.36Q62.86 7.36 63.29 7.83L63.29 7.83L63.29 7.83Q63.73 8.30 63.73 9.10L63.73 9.10L63.73 11.80L63.73 11.80Q63.73 12.38 63.88 12.57L63.88 12.57L63.88 12.57Q64.04 12.77 64.51 12.77L64.51 12.77ZM72.51 12.05L72.53 12.04L72.53 12.04Q72.58 12.04 72.61 12.10L72.61 12.10L72.61 12.10Q72.65 12.15 72.60 12.18L72.60 12.18L72.60 12.18Q72.09 12.67 71.62 12.89L71.62 12.89L71.62 12.89Q71.16 13.10 70.64 13.10L70.64 13.10L70.64 13.10Q70.04 13.10 69.63 12.82L69.63 12.82L69.63 12.82Q69.22 12.53 69.22 11.86L69.22 11.86L69.22 8.69L69.22 8.69Q69.22 8.23 69.07 8.08L69.07 8.08L69.07 8.08Q68.92 7.92 68.50 7.92L68.50 7.92L68.50 7.92Q68.49 7.92 68.47 7.89L68.47 7.89L68.47 7.89Q68.45 7.85 68.45 7.81L68.45 7.81L68.45 7.81Q68.45 7.77 68.47 7.73L68.47 7.73L68.47 7.73Q68.49 7.70 68.50 7.70L68.50 7.70L68.50 7.70Q69.82 7.64 70.15 6.57L70.15 6.57L70.15 6.57Q70.18 6.51 70.27 6.51L70.27 6.51L70.27 6.51Q70.36 6.51 70.36 6.57L70.36 6.57L70.36 7.67L70.36 7.67Q71.02 7.66 72.23 7.53L72.23 7.53L72.23 7.53Q72.25 7.53 72.29 7.64L72.29 7.64L72.29 7.64Q72.32 7.74 72.32 7.87L72.32 7.87L72.32 7.87Q72.32 7.99 72.28 8.12L72.28 8.12L72.28 8.12Q72.23 8.25 72.17 8.23L72.17 8.23L72.17 8.23Q71.39 8.05 70.36 8.01L70.36 8.01L70.36 11.40L70.36 11.40Q70.36 11.94 70.64 12.20L70.64 12.20L70.64 12.20Q70.91 12.46 71.40 12.46L71.40 12.46L71.40 12.46Q71.99 12.46 72.51 12.05L72.51 12.05ZM79.58 12.77L79.58 12.77Q79.63 12.77 79.63 12.85L79.63 12.85L79.63 12.85Q79.63 12.94 79.58 12.94L79.58 12.94L79.58 12.94Q79.23 12.94 79.02 12.92L79.02 12.92L78.22 12.91L77.42 12.92L77.42 12.92Q77.21 12.94 76.86 12.94L76.86 12.94L76.86 12.94Q76.82 12.94 76.82 12.85L76.82 12.85L76.82 12.85Q76.82 12.77 76.86 12.77L76.86 12.77L76.86 12.77Q77.32 12.77 77.49 12.56L77.49 12.56L77.49 12.56Q77.66 12.36 77.66 11.80L77.66 11.80L77.66 9.72L77.66 9.72Q77.66 8.18 76.45 8.18L76.45 8.18L76.45 8.18Q76.08 8.18 75.69 8.35L75.69 8.35L75.69 8.35Q75.31 8.53 75.01 8.82L75.01 8.82L75.01 11.80L75.01 11.80Q75.01 12.38 75.17 12.57L75.17 12.57L75.17 12.57Q75.33 12.77 75.81 12.77L75.81 12.77L75.81 12.77Q75.87 12.77 75.87 12.85L75.87 12.85L75.87 12.85Q75.87 12.94 75.81 12.94L75.81 12.94L75.81 12.94Q75.46 12.94 75.25 12.92L75.25 12.92L74.45 12.91L73.65 12.92L73.65 12.92Q73.44 12.94 73.09 12.94L73.09 12.94L73.09 12.94Q73.05 12.94 73.05 12.85L73.05 12.85L73.05 12.85Q73.05 12.77 73.09 12.77L73.09 12.77L73.09 12.77Q73.56 12.77 73.72 12.56L73.72 12.56L73.72 12.56Q73.89 12.36 73.89 11.80L73.89 11.80L73.89 4.65L73.89 4.65Q73.89 4.16 73.79 3.94L73.79 3.94L73.79 3.94Q73.70 3.72 73.47 3.72L73.47 3.72L73.47 3.72Q73.26 3.72 72.90 3.89L72.90 3.89L72.88 3.89L72.88 3.89Q72.84 3.89 72.81 3.81L72.81 3.81L72.81 3.81Q72.77 3.74 72.81 3.72L72.81 3.72L74.76 2.80L74.83 2.79L74.83 2.79Q74.89 2.79 74.95 2.84L74.95 2.84L74.95 2.84Q75.01 2.90 75.01 2.94L75.01 2.94L75.01 8.54L75.01 8.54Q76.02 7.38 77.15 7.38L77.15 7.38L77.15 7.38Q77.92 7.38 78.35 7.84L78.35 7.84L78.35 7.84Q78.78 8.30 78.78 9.10L78.78 9.10L78.78 11.80L78.78 11.80Q78.78 12.38 78.94 12.57L78.94 12.57L78.94 12.57Q79.10 12.77 79.58 12.77L79.58 12.77ZM85.15 12.07L85.18 12.05L85.18 12.05Q85.20 12.05 85.24 12.11L85.24 12.11L85.24 12.11Q85.27 12.17 85.25 12.19L85.25 12.19L85.25 12.19Q84.74 12.67 84.22 12.89L84.22 12.89L84.22 12.89Q83.71 13.10 83.09 13.10L83.09 13.10L83.09 13.10Q82.22 13.10 81.60 12.73L81.60 12.73L81.60 12.73Q80.98 12.36 80.65 11.74L80.65 11.74L80.65 11.74Q80.32 11.12 80.32 10.40L80.32 10.40L80.32 10.40Q80.32 9.58 80.73 8.89L80.73 8.89L80.73 8.89Q81.14 8.20 81.87 7.80L81.87 7.80L81.87 7.80Q82.59 7.41 83.45 7.41L83.45 7.41L83.45 7.41Q84.28 7.41 84.73 7.78L84.73 7.78L84.73 7.78Q85.18 8.15 85.18 8.79L85.18 8.79L85.18 8.79Q85.18 9.17 85.02 9.17L85.02 9.17L84.25 9.17L81.62 9.20L81.62 9.20Q81.58 9.49 81.58 9.83L81.58 9.83L81.58 9.83Q81.58 11.05 82.15 11.77L82.15 11.77L82.15 11.77Q82.71 12.49 83.72 12.49L83.72 12.49L83.72 12.49Q84.08 12.49 84.46 12.38L84.46 12.38L84.46 12.38Q84.84 12.28 85.15 12.07L85.15 12.07ZM82.95 7.69L82.95 7.69Q82.49 7.69 82.15 8.02L82.15 8.02L82.15 8.02Q81.82 8.36 81.68 8.95L81.68 8.95L83.86 8.90L83.86 8.90Q83.83 8.33 83.61 8.01L83.61 8.01L83.61 8.01Q83.38 7.69 82.95 7.69L82.95 7.69ZM101.86 4.19L101.86 4.19Q101.89 4.19 101.89 4.27L101.89 4.27L101.89 4.27Q101.89 4.35 101.86 4.35L101.86 4.35L101.86 4.35Q101.36 4.35 100.94 4.73L100.94 4.73L100.94 4.73Q100.52 5.11 100.24 5.82L100.24 5.82L97.52 12.92L97.52 12.92Q97.51 12.98 97.37 12.98L97.37 12.98L97.37 12.98Q97.23 12.98 97.22 12.92L97.22 12.92L95.41 9.06L93.94 12.92L93.94 12.92Q93.93 12.98 93.79 12.98L93.79 12.98L93.79 12.98Q93.65 12.98 93.63 12.92L93.63 12.92L90.09 5.35L90.09 5.35Q89.80 4.73 89.59 4.54L89.59 4.54L89.59 4.54Q89.39 4.35 88.98 4.35L88.98 4.35L88.98 4.35Q88.94 4.35 88.94 4.27L88.94 4.27L88.94 4.27Q88.94 4.19 88.98 4.19L88.98 4.19L89.35 4.20L89.35 4.20Q89.66 4.23 90.05 4.23L90.05 4.23L90.05 4.23Q90.83 4.23 91.48 4.20L91.48 4.20L91.48 4.20Q91.67 4.19 91.97 4.19L91.97 4.19L91.97 4.19Q92.01 4.19 92.01 4.27L92.01 4.27L92.01 4.27Q92.01 4.35 91.97 4.35L91.97 4.35L91.97 4.35Q91.59 4.35 91.43 4.43L91.43 4.43L91.43 4.43Q91.27 4.51 91.27 4.72L91.27 4.72L91.27 4.72Q91.27 4.96 91.52 5.50L91.52 5.50L94.19 11.20L95.20 8.60L93.67 5.35L93.67 5.35Q93.42 4.83 93.21 4.59L93.21 4.59L93.21 4.59Q92.99 4.35 92.69 4.35L92.69 4.35L92.69 4.35Q92.65 4.35 92.65 4.27L92.65 4.27L92.65 4.27Q92.65 4.19 92.69 4.19L92.69 4.19L93.03 4.20L93.03 4.20Q93.34 4.23 93.65 4.23L93.65 4.23L93.65 4.23Q94.30 4.23 94.81 4.20L94.81 4.20L94.81 4.20Q94.95 4.19 95.17 4.19L95.17 4.19L95.17 4.19Q95.21 4.19 95.21 4.27L95.21 4.27L95.21 4.27Q95.21 4.35 95.17 4.35L95.17 4.35L95.17 4.35Q94.95 4.35 94.86 4.40L94.86 4.40L94.86 4.40Q94.77 4.45 94.77 4.58L94.77 4.58L94.77 4.58Q94.77 4.80 95.10 5.50L95.10 5.50L95.86 7.10L96.36 5.77L96.36 5.77Q96.61 5.11 96.61 4.77L96.61 4.77L96.61 4.77Q96.61 4.35 96.19 4.35L96.19 4.35L96.19 4.35Q96.15 4.35 96.15 4.27L96.15 4.27L96.15 4.27Q96.15 4.19 96.19 4.19L96.19 4.19L96.19 4.19Q96.32 4.19 96.49 4.21L96.49 4.21L96.49 4.21Q96.66 4.23 97.10 4.23L97.10 4.23L97.10 4.23Q97.36 4.23 97.69 4.20L97.69 4.20L98.24 4.19L98.24 4.19Q98.27 4.19 98.27 4.27L98.27 4.27L98.27 4.27Q98.27 4.35 98.24 4.35L98.24 4.35L98.24 4.35Q97.76 4.35 97.40 4.70L97.40 4.70L97.40 4.70Q97.03 5.05 96.74 5.82L96.74 5.82L96.07 7.56L97.79 11.20L99.83 5.87L99.83 5.87Q99.97 5.50 99.97 5.18L99.97 5.18L99.97 5.18Q99.97 4.79 99.74 4.57L99.74 4.57L99.74 4.57Q99.51 4.35 99.09 4.35L99.09 4.35L99.09 4.35Q99.05 4.35 99.05 4.27L99.05 4.27L99.05 4.27Q99.05 4.19 99.09 4.19L99.09 4.19L99.71 4.20L99.71 4.20Q100.21 4.23 100.62 4.23L100.62 4.23L100.62 4.23Q100.90 4.23 101.26 4.20L101.26 4.20L101.86 4.19ZM108.60 12.77L108.60 12.77Q108.65 12.77 108.65 12.85L108.65 12.85L108.65 12.85Q108.65 12.94 108.60 12.94L108.60 12.94L108.60 12.94Q108.25 12.94 108.04 12.92L108.04 12.92L107.24 12.91L106.44 12.92L106.44 12.92Q106.23 12.94 105.88 12.94L105.88 12.94L105.88 12.94Q105.84 12.94 105.84 12.85L105.84 12.85L105.84 12.85Q105.84 12.77 105.88 12.77L105.88 12.77L105.88 12.77Q106.34 12.77 106.51 12.56L106.51 12.56L106.51 12.56Q106.68 12.36 106.68 11.80L106.68 11.80L106.68 9.72L106.68 9.72Q106.68 8.18 105.48 8.18L105.48 8.18L105.48 8.18Q105.10 8.18 104.71 8.35L104.71 8.35L104.71 8.35Q104.33 8.53 104.03 8.82L104.03 8.82L104.03 11.80L104.03 11.80Q104.03 12.38 104.20 12.57L104.20 12.57L104.20 12.57Q104.36 12.77 104.83 12.77L104.83 12.77L104.83 12.77Q104.89 12.77 104.89 12.85L104.89 12.85L104.89 12.85Q104.89 12.94 104.83 12.94L104.83 12.94L104.83 12.94Q104.48 12.94 104.27 12.92L104.27 12.92L103.47 12.91L102.68 12.92L102.68 12.92Q102.47 12.94 102.12 12.94L102.12 12.94L102.12 12.94Q102.07 12.94 102.07 12.85L102.07 12.85L102.07 12.85Q102.07 12.77 102.12 12.77L102.12 12.77L102.12 12.77Q102.58 12.77 102.75 12.56L102.75 12.56L102.75 12.56Q102.91 12.36 102.91 11.80L102.91 11.80L102.91 4.65L102.91 4.65Q102.91 4.16 102.82 3.94L102.82 3.94L102.82 3.94Q102.72 3.72 102.49 3.72L102.49 3.72L102.49 3.72Q102.28 3.72 101.92 3.89L101.92 3.89L101.91 3.89L101.91 3.89Q101.86 3.89 101.83 3.81L101.83 3.81L101.83 3.81Q101.79 3.74 101.84 3.72L101.84 3.72L103.78 2.80L103.85 2.79L103.85 2.79Q103.91 2.79 103.97 2.84L103.97 2.84L103.97 2.84Q104.03 2.90 104.03 2.94L104.03 2.94L104.03 8.54L104.03 8.54Q105.04 7.38 106.18 7.38L106.18 7.38L106.18 7.38Q106.95 7.38 107.37 7.84L107.37 7.84L107.37 7.84Q107.80 8.30 107.80 9.10L107.80 9.10L107.80 11.80L107.80 11.80Q107.80 12.38 107.96 12.57L107.96 12.57L107.96 12.57Q108.12 12.77 108.60 12.77L108.60 12.77ZM114.17 12.07L114.20 12.05L114.20 12.05Q114.23 12.05 114.26 12.11L114.26 12.11L114.26 12.11Q114.30 12.17 114.27 12.19L114.27 12.19L114.27 12.19Q113.76 12.67 113.25 12.89L113.25 12.89L113.25 12.89Q112.73 13.10 112.11 13.10L112.11 13.10L112.11 13.10Q111.24 13.10 110.62 12.73L110.62 12.73L110.62 12.73Q110.00 12.36 109.67 11.74L109.67 11.74L109.67 11.74Q109.34 11.12 109.34 10.40L109.34 10.40L109.34 10.40Q109.34 9.58 109.75 8.89L109.75 8.89L109.75 8.89Q110.17 8.20 110.89 7.80L110.89 7.80L110.89 7.80Q111.61 7.41 112.48 7.41L112.48 7.41L112.48 7.41Q113.30 7.41 113.75 7.78L113.75 7.78L113.75 7.78Q114.20 8.15 114.20 8.79L114.20 8.79L114.20 8.79Q114.20 9.17 114.04 9.17L114.04 9.17L113.27 9.17L110.64 9.20L110.64 9.20Q110.60 9.49 110.60 9.83L110.60 9.83L110.60 9.83Q110.60 11.05 111.17 11.77L111.17 11.77L111.17 11.77Q111.73 12.49 112.74 12.49L112.74 12.49L112.74 12.49Q113.11 12.49 113.48 12.38L113.48 12.38L113.48 12.38Q113.86 12.28 114.17 12.07L114.17 12.07ZM111.97 7.69L111.97 7.69Q111.51 7.69 111.17 8.02L111.17 8.02L111.17 8.02Q110.84 8.36 110.70 8.95L110.70 8.95L112.88 8.90L112.88 8.90Q112.85 8.33 112.63 8.01L112.63 8.01L112.63 8.01Q112.41 7.69 111.97 7.69L111.97 7.69ZM119.98 12.07L120.01 12.05L120.01 12.05Q120.04 12.05 120.07 12.11L120.07 12.11L120.07 12.11Q120.11 12.17 120.08 12.19L120.08 12.19L120.08 12.19Q119.57 12.67 119.06 12.89L119.06 12.89L119.06 12.89Q118.54 13.10 117.92 13.10L117.92 13.10L117.92 13.10Q117.05 13.10 116.43 12.73L116.43 12.73L116.43 12.73Q115.81 12.36 115.48 11.74L115.48 11.74L115.48 11.74Q115.15 11.12 115.15 10.40L115.15 10.40L115.15 10.40Q115.15 9.58 115.56 8.89L115.56 8.89L115.56 8.89Q115.98 8.20 116.70 7.80L116.70 7.80L116.70 7.80Q117.42 7.41 118.29 7.41L118.29 7.41L118.29 7.41Q119.11 7.41 119.56 7.78L119.56 7.78L119.56 7.78Q120.01 8.15 120.01 8.79L120.01 8.79L120.01 8.79Q120.01 9.17 119.85 9.17L119.85 9.17L119.08 9.17L116.45 9.20L116.45 9.20Q116.41 9.49 116.41 9.83L116.41 9.83L116.41 9.83Q116.41 11.05 116.98 11.77L116.98 11.77L116.98 11.77Q117.54 12.49 118.55 12.49L118.55 12.49L118.55 12.49Q118.92 12.49 119.29 12.38L119.29 12.38L119.29 12.38Q119.67 12.28 119.98 12.07L119.98 12.07ZM117.78 7.69L117.78 7.69Q117.32 7.69 116.98 8.02L116.98 8.02L116.98 8.02Q116.65 8.36 116.51 8.95L116.51 8.95L118.69 8.90L118.69 8.90Q118.66 8.33 118.44 8.01L118.44 8.01L118.44 8.01Q118.22 7.69 117.78 7.69L117.78 7.69ZM121.02 12.94L121.02 12.94Q120.97 12.94 120.97 12.85L120.97 12.85L120.97 12.85Q120.97 12.77 121.02 12.77L121.02 12.77L121.02 12.77Q121.48 12.77 121.65 12.56L121.65 12.56L121.65 12.56Q121.81 12.36 121.81 11.80L121.81 11.80L121.81 4.65L121.81 4.65Q121.81 4.16 121.72 3.94L121.72 3.94L121.72 3.94Q121.63 3.72 121.39 3.72L121.39 3.72L121.39 3.72Q121.18 3.72 120.83 3.89L120.83 3.89L120.82 3.89L120.82 3.89Q120.76 3.89 120.74 3.82L120.74 3.82L120.74 3.82Q120.71 3.75 120.74 3.72L120.74 3.72L122.71 2.80L122.77 2.79L122.77 2.79Q122.82 2.79 122.90 2.84L122.90 2.84L122.90 2.84Q122.98 2.90 122.98 2.94L122.98 2.94L122.98 11.80L122.98 11.80Q122.98 12.38 123.13 12.57L123.13 12.57L123.13 12.57Q123.28 12.77 123.76 12.77L123.76 12.77L123.76 12.77Q123.80 12.77 123.80 12.85L123.80 12.85L123.80 12.85Q123.80 12.94 123.76 12.94L123.76 12.94L123.76 12.94Q123.42 12.94 123.21 12.92L123.21 12.92L122.39 12.91L121.58 12.92L121.58 12.92Q121.37 12.94 121.02 12.94L121.02 12.94Z"></path></g><!----><!----></svg>